<svg xmlns="http://www.w3.org/2000/svg" viewBox="0 0 482.52 86.58"><g id="Layer_2" data-name="Layer 2"><g id="Layer_1-2" data-name="Layer 1"><path d="M43.29,0A43.29,43.29,0,1,0,86.58,43.29,43.29,43.29,0,0,0,43.29,0Zm0,74.21A30.92,30.92,0,1,1,74.21,43.29,30.92,30.92,0,0,1,43.29,74.21Z"/><path d="M155.73,20.86V53.43a14.37,14.37,0,0,1-1.58,6.78,15.87,15.87,0,0,1-4.24,5.12,19.9,19.9,0,0,1-6,3.27,21.35,21.35,0,0,1-6.93,1.16,23.27,23.27,0,0,1-7.35-1.16,19.25,19.25,0,0,1-6.13-3.27,15.57,15.57,0,0,1-4.15-5.16,14.66,14.66,0,0,1-1.54-6.74V20.86h6.16V53.35a8.77,8.77,0,0,0,1,4.2A11.25,11.25,0,0,0,127.78,61a13.16,13.16,0,0,0,4.12,2.27,15.08,15.08,0,0,0,5,.81,15.31,15.31,0,0,0,5.09-.81A12.63,12.63,0,0,0,146,61a10.43,10.43,0,0,0,2.66-3.39,9.63,9.63,0,0,0,1-4.28V20.86Z"/><path d="M166.51,69.22V20.86h5.31l26.33,22.72V20.86h6.16V69.22h-6.16V51.43L172.67,29.48V69.22Z"/><path d="M234,20.86l19.4,48.36h-6.62L241,54.89H223.56l-5.62,14.33h-6.62l18.94-48.36Zm-8.4,28.34h13.17c-.57-1.49-1.1-2.89-1.62-4.2s-1-2.59-1.54-3.85l-1.61-4c-.57-1.38-1.16-2.9-1.78-4.54Z"/><path d="M297.56,20.86V53.43A14.25,14.25,0,0,1,296,60.21a16,16,0,0,1-4.23,5.12,20,20,0,0,1-6.05,3.27,21.35,21.35,0,0,1-6.93,1.16,23.37,23.37,0,0,1-7.35-1.16,19.09,19.09,0,0,1-6.12-3.27,15.6,15.6,0,0,1-4.16-5.16,14.66,14.66,0,0,1-1.54-6.74V20.86h6.16V53.35a8.89,8.89,0,0,0,1,4.2A11.25,11.25,0,0,0,269.61,61a13.16,13.16,0,0,0,4.12,2.27,16,16,0,0,0,10,0,12.63,12.63,0,0,0,4-2.23,10.3,10.3,0,0,0,2.66-3.39,9.63,9.63,0,0,0,1-4.28V20.86Z"/><path d="M303.72,20.86h43.12v5.7H328.36V69.22H322.2V26.56H303.72Z"/><path d="M354.54,69.22V20.86h6.16V40.57h30.65V20.86h6.16V69.22h-6.16V46.27H360.7V69.22Z"/><path d="M408.29,69.22V20.86h27.64v5.7H414.45v14h17.17v5.7H414.45V63.52h21.48v5.7Z"/><path d="M446.71,20.86h8.78a33.37,33.37,0,0,1,10.12,1.54,26.27,26.27,0,0,1,8.63,4.54,22.82,22.82,0,0,1,6,7.4,21.71,21.71,0,0,1,2.28,10.16,22.89,22.89,0,0,1-2.24,10.24,24.48,24.48,0,0,1-6,7.78,26.71,26.71,0,0,1-8.58,5,29.7,29.7,0,0,1-10.09,1.74h-8.93Zm8.93,42.66a23.61,23.61,0,0,0,7.59-1.27,20.86,20.86,0,0,0,6.66-3.7,18.55,18.55,0,0,0,4.73-6,17.29,17.29,0,0,0,1.81-8,16.7,16.7,0,0,0-1.69-7.66,17.26,17.26,0,0,0-4.51-5.66,19.6,19.6,0,0,0-6.54-3.51A25.44,25.44,0,0,0,456,26.56h-3.08v37Z"/></g></g></svg>