<?xml version="1.0" standalone="no"?>
<!DOCTYPE svg PUBLIC "-//W3C//DTD SVG 20010904//EN"
 "http://www.w3.org/TR/2001/REC-SVG-20010904/DTD/svg10.dtd">
<svg version="1.0" xmlns="http://www.w3.org/2000/svg"
 width="728.000000pt" height="728.000000pt" viewBox="0 0 728.000000 728.000000"
 preserveAspectRatio="xMidYMid meet">
<metadata>
Created by potrace 1.11, written by Peter Selinger 2001-2013
</metadata>
<g transform="translate(0.000000,728.000000) scale(0.100000,-0.100000)"
fill="#000000" stroke="none">
<path d="M2577 7266 c-26 -7 -50 -14 -52 -15 -3 -1 -13 -4 -22 -7 -185 -61
-368 -242 -487 -481 -59 -119 -119 -295 -132 -392 -2 -19 -6 -37 -8 -40 -18
-29 -29 -483 -13 -551 3 -14 9 -47 13 -75 4 -27 9 -57 11 -65 2 -8 5 -24 7
-35 25 -131 127 -376 192 -462 13 -17 24 -34 24 -37 0 -7 34 -48 67 -83 12
-13 20 -23 18 -23 -3 0 23 -26 58 -57 34 -31 64 -59 67 -63 3 -3 16 -11 30
-17 14 -7 48 -25 75 -41 28 -15 70 -34 95 -41 25 -7 56 -17 70 -21 28 -8 203
-6 235 3 11 3 34 8 50 12 17 4 36 12 43 18 6 5 12 7 12 4 0 -11 114 55 170 99
140 108 255 268 340 475 32 76 87 271 95 337 3 21 9 67 14 103 26 192 -11 597
-68 734 -5 11 -14 38 -21 60 -12 38 -52 134 -69 165 -141 264 -317 427 -526
488 -67 19 -228 24 -288 8z"/>
<path d="M4550 7265 c-177 -43 -342 -168 -469 -355 -31 -47 -70 -112 -85 -145
-16 -33 -34 -71 -41 -85 -13 -27 -63 -174 -69 -206 -3 -10 -9 -39 -16 -64 -6
-25 -13 -56 -14 -70 -4 -23 -13 -95 -22 -165 -5 -38 -4 -291 1 -330 17 -137
32 -224 46 -270 72 -249 160 -425 274 -554 114 -128 216 -198 360 -247 68 -23
237 -27 307 -7 190 53 340 168 470 361 43 64 127 225 134 257 1 6 12 36 23 68
11 31 17 57 14 57 -3 0 -1 6 5 13 5 6 13 26 16 42 3 17 9 41 12 55 6 30 12 60
19 97 14 71 19 160 19 293 0 181 -9 276 -40 405 -8 33 -17 69 -19 80 -25 108
-141 365 -190 421 -5 6 -17 22 -25 34 -16 23 -70 85 -117 133 -63 65 -205 148
-295 174 -72 20 -230 24 -298 8z"/>
<path d="M867 5634 c-1 -1 -25 -4 -54 -7 -159 -16 -318 -117 -433 -272 -53
-72 -127 -222 -146 -295 -2 -8 -8 -33 -14 -55 -50 -188 -58 -404 -25 -650 2
-11 11 -54 20 -95 9 -41 18 -82 19 -90 1 -8 5 -22 8 -30 4 -8 12 -33 18 -55 6
-22 14 -47 17 -55 3 -8 7 -19 9 -25 18 -69 104 -239 179 -355 203 -313 502
-511 770 -511 68 1 86 3 150 18 67 16 108 34 181 79 43 27 134 111 169 156
106 136 179 324 210 538 12 87 13 363 2 415 -3 11 -8 47 -12 80 -3 32 -8 62
-10 65 -2 4 -6 17 -8 31 -6 32 -26 108 -36 139 -5 14 -15 45 -22 70 -7 25 -19
56 -26 70 -7 14 -13 29 -13 33 0 5 -22 52 -48 106 -178 357 -441 603 -719 671
-66 16 -178 31 -186 24z"/>
<path d="M6295 5629 c-22 -4 -53 -10 -70 -14 -44 -9 -159 -57 -163 -67 -2 -4
-8 -8 -13 -8 -10 0 -94 -52 -138 -86 -37 -28 -221 -215 -221 -225 0 -4 -6 -14
-13 -21 -27 -28 -107 -157 -152 -246 -75 -149 -150 -380 -170 -522 -2 -14 -7
-47 -11 -75 -16 -102 -9 -381 11 -485 3 -14 8 -41 11 -60 17 -93 86 -259 148
-355 75 -118 254 -263 343 -280 13 -2 27 -6 32 -9 27 -17 197 -24 270 -12 56
9 191 57 191 67 0 6 4 8 9 5 8 -6 140 76 187 116 68 58 181 177 214 224 58 85
92 137 122 189 34 61 88 171 88 181 0 3 6 20 14 37 11 25 42 119 63 192 10 35
44 197 49 235 10 73 12 390 3 424 -4 17 -10 51 -13 74 -6 55 -54 223 -68 240
-6 6 -8 12 -5 12 4 0 -9 28 -27 63 -49 95 -58 108 -101 162 -101 128 -221 205
-375 242 -32 8 -177 9 -215 2z"/>
<path d="M3507 4034 c-1 -2 -27 -5 -57 -8 -61 -6 -83 -10 -151 -26 -26 -6 -53
-12 -60 -13 -8 -2 -18 -5 -24 -8 -9 -6 -61 -21 -77 -23 -3 -1 -10 -4 -14 -8
-4 -5 -14 -8 -22 -8 -14 0 -222 -98 -232 -109 -3 -3 -45 -33 -95 -65 -76 -50
-188 -157 -725 -694 -349 -348 -658 -664 -686 -700 -60 -79 -130 -193 -169
-277 -30 -65 -81 -208 -89 -249 -2 -14 -7 -30 -10 -35 -3 -4 -8 -28 -10 -52
-3 -24 -10 -69 -15 -99 -5 -30 -8 -127 -6 -215 3 -141 9 -190 39 -325 34 -153
181 -457 244 -507 9 -7 13 -13 9 -13 -11 0 29 -45 128 -145 130 -132 218 -197
377 -278 84 -43 286 -116 343 -123 16 -2 41 -6 55 -10 68 -15 158 -21 280 -19
174 4 229 12 405 59 13 4 38 13 99 37 27 10 54 19 61 19 7 0 18 7 25 15 7 9
15 13 17 11 8 -8 113 55 251 149 24 16 101 85 169 151 l62 60 84 -80 c115
-111 137 -130 229 -192 120 -82 323 -178 421 -198 12 -3 49 -12 82 -20 33 -8
87 -18 120 -23 76 -10 324 -10 390 0 131 20 118 17 265 63 439 138 802 510
936 958 23 75 29 100 41 166 14 79 18 129 18 260 0 135 -4 188 -19 265 -4 17
-9 44 -12 60 -30 165 -141 398 -271 570 -41 56 -1294 1314 -1348 1355 -11 8
-36 26 -55 40 -19 13 -37 27 -40 30 -3 4 -12 10 -20 13 -8 4 -28 16 -45 27
-34 22 -194 101 -240 118 -16 6 -43 17 -60 23 -16 7 -37 13 -45 14 -8 1 -40 9
-70 18 -30 8 -75 18 -100 22 -25 3 -58 9 -75 12 -30 5 -303 12 -308 7z"/>
</g>
</svg>
